<svg height="933.333" viewBox="0 0 700 700" width="933.333" xmlns="http://www.w3.org/2000/svg"><path d="m326 2.1c-136.6 9.6-254.5 97.6-302.6 225.7-16.7 44.6-24.4 95-21.5 140.9 1.3 21.3 2.2 28.6 5.6 46.9 20.3 108.2 92.8 201.9 193.1 249.5 51.9 24.7 112.4 36.6 168.1 33 21.3-1.3 28.6-2.2 46.9-5.6 108.2-20.3 201.9-92.8 249.5-193.1 24.7-51.9 36.6-112.4 33-168.1-1.3-21.3-2.2-28.6-5.6-46.9-20.3-108.2-92.8-201.9-193.1-249.5-53.6-25.4-114.4-37-173.4-32.8zm-31.2 118.7c30.4 17.7 55.5 32.2 55.7 32.2.3 0 26.4-14.6 58-32.5 31.7-17.9 58-32.5 58.4-32.5.9 0 113.9 64.6 115.3 65.9.4.3-51.4 29.9-115.2 65.6l-116 65v130.6l4.3-2.5c9.7-5.6 110.8-61.6 111.2-61.6.3 0 .5 58.8.5 130.6 0 104.1-.3 130.5-1.2 130.1-.7-.3-26.7-15.1-57.8-33l-56.5-32.5-.3-64c-.2-49.5-.5-64.2-1.5-65-1.5-1.2-115.6-66.2-116.2-66.2-.3 0-.5 58.7-.5 130.5s-.2 130.5-.4 130.5c-.3 0-26.2-14.8-57.8-32.9l-57.3-32.9v-392.3l59.5-33c32.7-18.1 60.2-32.8 61-32.6s26.4 14.9 56.8 32.5z"/></svg>