<svg version="1" xmlns="http://www.w3.org/2000/svg" width="933.333" height="933.333" viewBox="0 0 700 700"><path d="M326 2.1C189.4 11.7 71.5 99.7 23.4 227.8 6.7 272.4-1 322.8 1.9 368.7c1.3 21.3 2.2 28.6 5.6 46.9 20.3 108.2 92.8 201.9 193.1 249.5 51.9 24.7 112.4 36.6 168.1 33 21.3-1.3 28.6-2.2 46.9-5.6 108.2-20.3 201.9-92.8 249.5-193.1 24.7-51.9 36.6-112.4 33-168.1-1.3-21.3-2.2-28.6-5.6-46.9-20.3-108.2-92.8-201.9-193.1-249.5C445.8 9.5 385-2.1 326 2.1zm-31.2 118.7c30.4 17.7 55.5 32.2 55.7 32.2.3 0 26.4-14.6 58-32.5 31.7-17.9 58-32.5 58.4-32.5.9 0 113.9 64.6 115.3 65.9.4.3-51.4 29.9-115.2 65.6l-116 65v130.6l4.3-2.5C365 407 466.1 351 466.5 351c.3 0 .5 58.8.5 130.6 0 104.1-.3 130.5-1.2 130.1-.7-.3-26.7-15.1-57.8-33l-56.5-32.5-.3-64c-.2-49.5-.5-64.2-1.5-65-1.5-1.2-115.6-66.2-116.2-66.2-.3 0-.5 58.7-.5 130.5s-.2 130.5-.4 130.5c-.3 0-26.2-14.8-57.8-32.9l-57.3-32.9V153.9l59.5-33c32.7-18.1 60.2-32.8 61-32.6.8.2 26.4 14.9 56.8 32.5z"/></svg>