<?xml version="1.0" standalone="no"?>
<!DOCTYPE svg PUBLIC "-//W3C//DTD SVG 20010904//EN"
 "http://www.w3.org/TR/2001/REC-SVG-20010904/DTD/svg10.dtd">
<svg version="1.0" xmlns="http://www.w3.org/2000/svg"
 width="700.000000pt" height="700.000000pt" viewBox="0 0 700.000000 700.000000"
 preserveAspectRatio="xMidYMid meet">
<metadata>
Created by potrace 1.11, written by Peter Selinger 2001-2013
</metadata>
<g transform="translate(0.000000,700.000000) scale(0.100000,-0.100000)"
fill="#000000" stroke="none">
<path d="M3260 6979 c-1366 -96 -2545 -976 -3026 -2257 -167 -446 -244 -950
-215 -1409 13 -213 22 -286 56 -469 203 -1082 928 -2019 1931 -2495 519 -247
1124 -366 1681 -330 213 13 286 22 469 56 1082 203 2019 928 2495 1931 247
519 366 1124 330 1681 -13 213 -22 286 -56 469 -203 1082 -928 2019 -1931
2495 -536 254 -1144 370 -1734 328z m-312 -1187 c304 -177 555 -322 557 -322
3 0 264 146 580 325 317 179 580 325 584 325 9 0 1139 -646 1153 -659 4 -3
-514 -299 -1152 -656 l-1160 -650 0 -653 0 -653 43 25 c97 56 1108 616 1112
616 3 0 5 -588 5 -1306 0 -1041 -3 -1305 -12 -1301 -7 3 -267 151 -578 330
l-565 325 -3 640 c-2 495 -5 642 -15 650 -15 12 -1156 662 -1162 662 -3 0 -5
-587 -5 -1305 0 -718 -2 -1305 -4 -1305 -3 0 -262 148 -578 329 l-573 329 0
1962 0 1961 595 330 c327 181 602 328 610 326 8 -2 264 -149 568 -325z"/>
</g>
</svg>
