<svg viewBox="0 0 800.00001 800.00001">
<path
       d="m 361.82422,74.841797 c -91.63508,0.188476 -194.9555,5.600535 -237.1875,49.101563 -50.255088,51.76521 -50.022084,176.64079 -49.859376,277.05273 0.162707,100.41194 2.562859,221.74898 49.859376,271.93164 49.74491,52.78045 174.74598,52.78083 274.84375,52.10547 100.09776,-0.67536 224.89713,0.67017 274.39453,-48.82226 50.50762,-50.50255 48.45431,-177.03191 50.78125,-276.22656 C 727.03138,298.73495 724.38262,175.70839 673.875,128.23633 621.28642,78.808378 499.38278,75.708205 400.16992,74.984375 c -12.4016,-0.09048 -25.25498,-0.169503 -38.3457,-0.142578 z m -73.43945,77.636723 c 8.15353,-0.2457 99.64167,56.95426 108.46875,56.6875 8.82708,-0.26676 101.98593,-56.28246 109.64453,-56.6875 7.6586,-0.40504 115.23486,50.80787 115.03711,56.6875 -0.19775,5.87963 -222.14816,122.72069 -224.68164,128.10546 -2.53348,5.38477 1.68572,122.88246 0,125.68164 -1.68572,2.79918 -101.47765,-70.97322 -108.46875,-64.81835 -6.9911,6.15487 6.74497,246.23646 0,249.38671 -6.74497,3.15025 -104.82103,-56.71034 -109.91993,-62.93945 -5.0989,-6.22911 -3.28853,-366.88531 0,-375.41601 3.28853,-8.5307 101.7664,-56.4418 109.91993,-56.6875 z m 218.11328,245.65625 c 7.35468,3.04234 5.9699,246.79084 0,249.38671 -5.9699,2.59587 -106.86941,-58.74703 -109.64453,-62.93945 -2.77512,-4.19242 -1.09887,-119.04526 0.50508,-121.75645 1.60395,-2.71118 101.78477,-67.73315 109.13945,-64.69081 z"
  />
  </svg>
