<svg viewBox="0 0 570 570">
    <path fill="#ffffff"
        d="m 81.241717,113.09613 c 72.793043,41.01017 145.586093,82.02033 218.379143,123.0305 0,41.52279 0,83.04559 0,124.56838 -36.39652,-21.01771 -72.79305,-42.03542 -109.18957,-63.05313 0,82.53296 0,165.06593 0,247.59889 -36.39652,-21.01771 -72.79305,-42.03543 -109.189573,-63.05314 0,-123.0305 0,-246.061 0,-369.0915 z"/>
    <path fill="#c00000"  d="m 190.43129,297.64188 c 36.39652,20.50509 72.79305,41.01017 109.18957,61.51526 0,41.01016 0,82.02033 0,123.03049 -36.39652,21.01771 -72.79305,42.03543 -109.18957,63.05314 0,-82.53296 0,-165.06593 0,-247.59889 z"/>
    <path fill="#ffffff" d="m 408.81043,297.64188 c -36.39652,20.50509 -72.79305,41.01017 -109.18957,61.51526 0,41.01016 0,82.02033 0,123.03049 36.39652,21.01771 72.79305,42.03543 109.18957,63.05314 0,-82.53296 0,-165.06593 0,-247.59889 z"/>
    <path fill="#c00000"
        d="m 518,113.09613 c -72.79305,41.01017 -145.58609,82.02033 -218.37914,123.0305 0,41.52279 0,83.04559 0,124.56838 36.39652,-21.01771 72.79305,-42.03542 109.18957,-63.05313 0,82.53296 0,165.06593 0,247.59889 36.39652,-21.01771 72.79305,-42.03543 109.18957,-63.05314 0,-123.0305 0,-246.061 0,-369.0915 z"/>
    <path fill="#ffffff"
        d="M 193.50706,50.042995 C 156.08528,71.060707 118.6635,92.078418 81.241717,113.09613 154.08643,154.01459 226.69021,195.361 299.62086,236.12663 372.41391,195.11646 445.20695,154.1063 518,113.09613 481.60348,92.078418 445.20695,71.060707 408.81043,50.042995 372.41391,70.54808 336.01738,91.053165 299.62086,111.55825 264.24959,91.053165 228.87833,70.54808 193.50706,50.042995 Z"/>
</svg>
